<?xml version="1.0" encoding="UTF-8"?>
<svg width="200" height="200" viewBox="0 0 200 200" fill="none" xmlns="http://www.w3.org/2000/svg">
  <path d="M100 20C55.8172 20 20 55.8172 20 100C20 144.183 55.8172 180 100 180C144.183 180 180 144.183 180 100C180 55.8172 144.183 20 100 20Z" fill="#FFFFFF"/>
  <path d="M100 40C80 40 65 60 65 85C65 110 80 130 100 130C120 130 135 110 135 85C135 60 120 40 100 40Z" fill="#FFD700"/>
  <path d="M65 140C65 155 80 170 100 170C120 170 135 155 135 140H65Z" fill="#FFD700"/>
</svg> 